# xmcd CD database file
#
# Track frame offsets:
#	150
#	5184
#	26720
#	42927
#	61856
#	79467
#	94626
#	118595
#	132318
#	148295
#	170853
#	188785
#	191904
#	205189
#	222849
#	249580
#
# Disc length: 3599 seconds
#
# Revision: 0
# Processed by: cddbd v1.4PL0 Copyright (c) Steve Scherf et al.
# Submitted via: CDex 1.50Beta7
#
DISCID=f60e0d10
DTITLE=Paul Reddick and The Sidemen - Rattlebag
DYEAR=2001
DGENRE=Blues
TTITLE0=P. R. Jubilee
TTITLE1=Sleepy John Estes
TTITLE2=Pinegum
TTITLE3=King O' The Zig-zag
TTITLE4=One Way Trip
TTITLE5=Pearl River Blues
TTITLE6=Blind River Bound
TTITLE7=Trouble Again
TTITLE8=Scufflewood
TTITLE9=Dreamin' Dreamin
TTITLE10=Rattlebag
TTITLE11=06/19
TTITLE12=Smokehouse
TTITLE13=Elizabethville
TTITLE14=I'm A Criminal
TTITLE15=Tumblin' Down
EXTD=YEAR: 2001
EXTT0=
EXTT1=
EXTT2=
EXTT3=
EXTT4=
EXTT5=
EXTT6=
EXTT7=
EXTT8=
EXTT9=
EXTT10=
EXTT11=
EXTT12=
EXTT13=
EXTT14=
EXTT15=
PLAYORDER=
